<svg xmlns="http://www.w3.org/2000/svg" viewBox="0 0 772.71 238.66"><defs><linearGradient id="a" x1="189.79" y1="357.89" x2="66.79" y2="415.89" gradientUnits="userSpaceOnUse"><stop offset="0" stop-color="#002f62"/><stop offset=".41" stop-color="#144c7f"/><stop offset="1" stop-color="#1d71b8"/></linearGradient><linearGradient id="b" x1="55.56" y1="253.29" x2="224.06" y2="374.29" gradientUnits="userSpaceOnUse"><stop offset="0" stop-color="#86bc25"/><stop offset=".05" stop-color="#72b729"/><stop offset=".14" stop-color="#59b12e"/><stop offset=".22" stop-color="#48ad32"/><stop offset=".31" stop-color="#3dab34"/><stop offset=".42" stop-color="#3aaa35"/><stop offset=".54" stop-color="#2e936a"/><stop offset=".68" stop-color="#227ba2"/><stop offset=".75" stop-color="#1d71b8"/><stop offset="1" stop-color="#004e9e"/></linearGradient><linearGradient id="c" x1="98.33" y1="261.84" x2="213.96" y2="211.99" gradientUnits="userSpaceOnUse"><stop offset="0" stop-color="#527516"/><stop offset=".1" stop-color="#5d8419"/><stop offset=".3" stop-color="#6f9d1e"/><stop offset=".51" stop-color="#7cae22"/><stop offset=".73" stop-color="#84b924"/><stop offset="1" stop-color="#86bc25"/></linearGradient></defs><path d="M220.96 0h44c13.57 0 17.35.48 22.08 2.53 8.68 3.78 12.78 13.24 12.78 30 0 15.77-3.94 24.61-12.78 28.86-4.89 2.37-5.67 2.37-23.81 2.69h-30.44v41.16h-11.83zm39.9 53.78c23.35 0 27.13-2.84 27.13-20.66 0-13.72-1.58-18.92-6.47-21.13-3.15-1.42-4.41-1.58-16.87-1.74h-31.86v43.53zM396.97 0v73.66c0 12.61-1.26 18-5.36 23.18-6.16 7.41-13.88 9.46-37.07 9.46-14 0-19.87-.63-25.23-2.68-12-4.41-15.62-11.51-15.62-30V0h11.82v73.66c0 8.35.63 12.77 2.21 15.45 3.16 5.36 9.31 6.94 26.18 6.94 28.08 0 31.23-2.36 31.23-22.39V0zM500.6 105.2h-19.39l-44.16-71.6-7.1-11.83-3.63-5.84-3.47-5.83h-.34l.15 3.94v91.16h-11.79V0h19.39l38.33 62.77 10.09 16.41 5.05 8.2 4.89 8.2h.31l-.15-3.95V0h11.82zm26.11-59.14h10.41L580.18 0h15.45l-48.12 51.1 53.78 54.1h-16.07l-48.1-48.58h-10.41v48.58h-11.83V0h11.83zM655.8 105.2h-11.82V11.04h-34.23v-11h80.12v11.2l-34.07-.16zm-356.91 30.75c10.05 4.39 15.86 11.77 18.06 22.92 1.1 4.87 1.41 12.56 1.41 27.16 0 22.61-1.1 29.84-6.12 37.69-6.91 11-18.84 14.91-44.44 14.91-16.33 0-24.49-1.41-31.24-5.65-8.17-5-12.56-11.62-14.6-21.82-.79-4.4-1.1-9.74-1.1-20.1 0-19 .78-29.21 2.82-36.27 2.36-8.79 9.58-15.86 20.1-19.63 5.65-1.88 14.13-2.82 27.48-2.82 14.25 0 21.51.94 27.63 3.61zm-46.94 26.69c-1.73 3.45-2.2 8.63-2.2 24.18 0 25.91 1.25 27.63 20.41 27.63 11.46 0 15.07-1.57 17.43-7.53 1.57-4.08 2-8.8 2-22.61 0-14.45-.32-17.75-1.89-21.51-2.19-5-6-6.44-17.27-6.44-12.2.05-15.92 1.26-18.48 6.28zm184.64 75.21h-47.57l-16.51-44.12c-2.2-6.13-4.55-12.25-6.75-18.22l-6.25-18.37h-1.26l.47 9.74c.63 14.29.79 16.64.79 29v41.92h-27.49V133.12h47.26l16.65 44.12c2.19 6 4.39 11.78 6.75 17.74 2 6 4.08 11.94 6.12 17.75h1.1l-.31-9.42c-.63-13.82-.79-15.86-.79-28.27v-41.92h27.79zm42.06-24.02h44v24h-72.14V133.12h28.1zm85.31 24.02h-28.11V133.12h28.11zm118.27-.19h-47.57l-16.49-44.12c-2.2-6.12-4.55-12.25-6.75-18.21l-6.28-18.37h-1.26l.47 9.73c.63 14.29.79 16.64.79 29.05v41.92h-27.48V132.93h47.26l16.65 44.12c2.19 6 4.39 11.78 6.75 17.75 2 6 4.08 11.93 6.12 17.74h1.07l-.31-9.42c-.63-13.82-.79-15.86-.79-28.26v-41.93h27.79zm41.81-62.62h44.59v19.37h-44.59v20.41h48.68v23.08h-76.78V133.12h75.83v23.08h-47.73z" fill="#1c323a"/><path d="M235.55 354.63c0 49.75-34.23 77.62-103 77.62-67 0-91-22.93-91-46.93 0-16.93 21.17-35.28 23.29-33.51 14.82 13.4 43.4 26.46 67.74 26.46 21.88 0 31.76-6.35 31.76-18 0-14.11-18-14.11-40.93-19" transform="translate(-41.49 -193.59)" fill="url(#a)" data-name="S unten"/><path d="M156.52 283.36c44.85 9.66 79 29.28 79 71.27 0 41.4-23.7 67.65-71.31 75.29 0 0 89.62-69-40.89-88.7C88.7 336 46.79 317.23 46.79 270c0-38.76 23.59-65.25 67.2-73.29.01-.05-77.5 60.79 42.53 86.65z" transform="translate(-41.49 -193.59)" fill="url(#b)" data-name="S mitte"/><path d="M108.59 232.28a7.09 7.09 0 117.09 7.09 7.09 7.09 0 01-7.09-7.09zm8.71-9.91a7.09 7.09 0 10-7.09-7.09 7.1 7.1 0 007.09 7.09zm74.71 5a7.09 7.09 0 10-7.09-7.09 7.09 7.09 0 007.08 7.08zM107 255.2a7.09 7.09 0 10-7.09-7.09 7.09 7.09 0 007.09 7.09zm50.25-28.53a7.09 7.09 0 10-7.09-7.08 7.08 7.08 0 007.1 7.08zM191.93 249a5.67 5.67 0 10-5.67-5.67 5.66 5.66 0 005.67 5.67zm20.95-5.41a5.67 5.67 0 10-5.67-5.67 5.67 5.67 0 005.67 5.62zm-47.95-.42a5.67 5.67 0 10-5.67-5.67 5.66 5.66 0 005.67 5.62zm-62.5-16.5a5.67 5.67 0 10-5.67-5.67 5.67 5.67 0 005.67 5.62zM206.09 263a5.67 5.67 0 10-5.67-5.67 5.67 5.67 0 005.67 5.67zm-30.77-31.28a5.67 5.67 0 10-5.67-5.67 5.67 5.67 0 005.67 5.62zm0 22.62a4.26 4.26 0 10-4.25-4.25 4.26 4.26 0 004.27 4.2zM126.18 229a4.25 4.25 0 10-4.25-4.25 4.25 4.25 0 004.25 4.25zm-7 23.3a4.25 4.25 0 10-4.28-4.3 4.25 4.25 0 004.26 4.25zm41-51.74a4.25 4.25 0 10-5.67 2 4.24 4.24 0 005.64-2.05zm-27.74 17.32a4.25 4.25 0 10-4.25-4.25 4.25 4.25 0 004.22 4.2zm69.43-5.18a4.25 4.25 0 10-4.25-4.25 4.25 4.25 0 004.22 4.2zm-38.41-.2a4.25 4.25 0 10-4.26-4.25 4.25 4.25 0 004.23 4.2zm-67.12 23.34a4.26 4.26 0 10-4.25-4.26 4.25 4.25 0 004.25 4.26zm105.79 8a4.25 4.25 0 10-4.26-4.25 4.25 4.25 0 004.26 4.27zM185.18 236a4.25 4.25 0 10-4.25-4.25 4.25 4.25 0 004.25 4.25zm-57.67 2a4.26 4.26 0 10-4.25-4.25 4.25 4.25 0 004.25 4.25zm36.92-37.23a2.83 2.83 0 10-2.84-2.83 2.83 2.83 0 002.84 2.84zm-53.51 63.84a2.84 2.84 0 10-2.83-2.84 2.84 2.84 0 002.83 2.85zm39.51-50.22a2.84 2.84 0 10-2.84-2.83 2.83 2.83 0 002.84 2.84zm54.73 20.93a2.83 2.83 0 10-2.84-2.83 2.83 2.83 0 002.84 2.84zm-39.57-5.69a2.84 2.84 0 10-2.83-2.84 2.84 2.84 0 002.83 2.85zm36.9-10.14a2.84 2.84 0 10-2.83-2.83 2.83 2.83 0 002.83 2.84zm-28 25.52a2.84 2.84 0 10-2.84-2.83 2.83 2.83 0 002.82 2.82zm1.63-7.19a2.84 2.84 0 10-2.84-2.84 2.84 2.84 0 002.82 2.85zm11.24 17.07a2.84 2.84 0 10-2.83-2.83 2.84 2.84 0 002.81 2.84zm7.25-17.28a2.84 2.84 0 10-2.84-2.84 2.84 2.84 0 002.82 2.85zm19.9-20.45a2.84 2.84 0 10-2.83-2.84 2.83 2.83 0 002.81 2.85zm-59 22a2.84 2.84 0 10-2.83-2.84 2.84 2.84 0 002.83 2.8zm-61.4 7.17a2.84 2.84 0 10-2.83-2.83 2.84 2.84 0 002.83 2.79zm61.05-36.79a2.84 2.84 0 10-2.84-2.83 2.83 2.83 0 002.84 2.79zm-49.9 23.16a2.84 2.84 0 10-2.83-2.84 2.83 2.83 0 002.83 2.8zm42.44-6.09a2.84 2.84 0 10-2.83-2.83 2.84 2.84 0 002.83 2.79zm33.31 16a2.84 2.84 0 10-2.83-2.83 2.83 2.83 0 002.82 2.74zm13.42 13.35a2.84 2.84 0 10-2.84-2.83 2.83 2.83 0 002.84 2.74zm-87.61-40.46a2.84 2.84 0 10-2.83-2.83 2.84 2.84 0 002.83 2.83zm93.44 34.87a2.84 2.84 0 10-2.84-2.83 2.83 2.83 0 002.84 2.83zM184.32 214a2.84 2.84 0 10-2.83-2.83 2.84 2.84 0 002.83 2.83zm34.61 37.2a2.84 2.84 0 10-2.84-2.83 2.83 2.83 0 002.84 2.83zm-15.59-25.33a2.84 2.84 0 10-2.83-2.83 2.84 2.84 0 002.83 2.83zm-65.25 22.58a2.84 2.84 0 10-2.83-2.83 2.84 2.84 0 002.83 2.83zm-31.91-7.87a2.84 2.84 0 10-2.84-2.84 2.84 2.84 0 002.84 2.84zm79.74-36.05a2.83 2.83 0 10-2.83-2.83 2.83 2.83 0 002.83 2.83zm15.24 64a2.84 2.84 0 10-2.84-2.83 2.83 2.83 0 002.84 2.8zm-56.23-67.05a2.84 2.84 0 10-2.84-2.83 2.83 2.83 0 002.84 2.8zM168 223.17a2.84 2.84 0 10-2.84-2.83 2.83 2.83 0 002.84 2.83zm-16.25 25.28a2.84 2.84 0 10-2.84-2.83 2.83 2.83 0 002.85 2.83zm27-45.5a2.84 2.84 0 10-2.84-2.83 2.83 2.83 0 002.85 2.88zm13.9 59.38a2.83 2.83 0 10-2.84-2.83 2.83 2.83 0 002.85 2.83zm-39.15-29.46a2.84 2.84 0 10-2.83-2.84 2.84 2.84 0 002.84 2.84zm5.59 14.91a2.84 2.84 0 10-2.84-2.84 2.84 2.84 0 002.85 2.84zm50.68-20.47a2.84 2.84 0 10-2.83-2.84 2.84 2.84 0 002.84 2.84zm-82.62-25.39a2.84 2.84 0 10-2.84-2.84 2.84 2.84 0 002.85 2.84zm13.52 4.85a2.84 2.84 0 10-2.84-2.83 2.83 2.83 0 002.85 2.83zm-6.65-.06a2.84 2.84 0 10-2.83-2.84 2.84 2.84 0 002.81 2.84zm-10.56.26a2.84 2.84 0 10-2.83-2.83 2.84 2.84 0 002.84 2.86zm10.46 35.56a2.84 2.84 0 10-2.84-2.83 2.83 2.83 0 002.85 2.83zm.12-42.49a2.84 2.84 0 10-2.84-2.84 2.84 2.84 0 002.85 2.8zm9.29 44.08a2.84 2.84 0 10-2.83-2.83 2.84 2.84 0 002.84 2.83zM105 261.67a2.84 2.84 0 10-2.83-2.84 2.83 2.83 0 002.83 2.84zm66.91-60.5a2.84 2.84 0 10-.86 3.92 2.84 2.84 0 00.85-3.92zm55.09 41.5a2.84 2.84 0 10-2.83-2.84 2.83 2.83 0 002.83 2.84zm-20.65 29.78a2.84 2.84 0 10-2.83-2.84 2.84 2.84 0 002.82 2.84zm-15-69.53a1.42 1.42 0 10-1.41-1.42 1.42 1.42 0 001.38 1.42zm20 66.33a1.42 1.42 0 10-1.41-1.42 1.41 1.41 0 001.38 1.42zm-37.4-70.09a1.42 1.42 0 10-1.41-1.42 1.41 1.41 0 001.38 1.42zM163 250.42a1.42 1.42 0 10-1.42-1.42 1.43 1.43 0 001.42 1.42zm-63.33 6.25a1.42 1.42 0 10-1.42-1.42 1.42 1.42 0 001.41 1.42zM134.8 221a1.42 1.42 0 10-1.42-1.42 1.43 1.43 0 001.42 1.42zm-20.54 36a1.42 1.42 0 10-1.42-1.42 1.42 1.42 0 001.42 1.42zm-.6 10.95a1.42 1.42 0 10-1.42-1.42 1.42 1.42 0 001.42 1.39zm35-26.22a1.42 1.42 0 10-1.41-1.42 1.42 1.42 0 001.44 1.39zm-19.37-36a1.42 1.42 0 10-1.41-1.42 1.42 1.42 0 001.44 1.36zm-2.83 13.92a1.42 1.42 0 10-1.42-1.42 1.41 1.41 0 001.45 1.36zm54.17 36.66a1.42 1.42 0 10-1.42-1.42 1.41 1.41 0 001.45 1.36zm-10.84-57.67a1.42 1.42 0 10-1.41-1.41 1.41 1.41 0 001.44 1.35zm-46.6 46a1.42 1.42 0 10-1.42-1.42 1.41 1.41 0 001.45 1.37zm-.73-3.92a1.42 1.42 0 10-1.42-1.42 1.43 1.43 0 001.45 1.37zm22.68 7.23a1.42 1.42 0 10-1.41-1.41 1.41 1.41 0 001.44 1.36zM107 208.11a1.42 1.42 0 10-1.42-1.41 1.41 1.41 0 001.42 1.41zm16.2-10.81a1.42 1.42 0 10-1.68 1.09 1.43 1.43 0 001.69-1.09zm58.28 50.95a1.42 1.42 0 10-1.42-1.42 1.42 1.42 0 001.43 1.42zM110.36 208a1.42 1.42 0 10-1.41-1.42 1.41 1.41 0 001.41 1.42zm-.36 14.58a1.42 1.42 0 10-1.42-1.41 1.42 1.42 0 001.42 1.41zm58.25 28.88a1.42 1.42 0 10-1.17-2.58 1.42 1.42 0 001.17 2.58zm-58.38-24.81a1.42 1.42 0 10-1.42-1.41 1.42 1.42 0 001.41 1.41zm30.52-29.39a1.42 1.42 0 10-1.41-1.42 1.42 1.42 0 001.4 1.42zm-48.23 42.82a1.42 1.42 0 10-1.42-1.41 1.41 1.41 0 001.42 1.41zm22.33 3.5a1.42 1.42 0 10-1.42-1.41 1.42 1.42 0 001.42 1.41zm79.33-32.16a1.42 1.42 0 10-1.41-1.42 1.42 1.42 0 001.41 1.42zm-12.25 8.65a1.42 1.42 0 10-1.42-1.42 1.42 1.42 0 001.42 1.42zm-48.91 5.68a1.42 1.42 0 10-1.42-1.42 1.41 1.41 0 001.42 1.42zm28 6.11a1.42 1.42 0 10-1.41-1.41 1.41 1.41 0 001.38 1.41zm-10.46-28.25a1.42 1.42 0 10-1.41-1.41 1.41 1.41 0 001.38 1.41zm31.92 3a1.42 1.42 0 10-1.42-1.41 1.42 1.42 0 001.39 1.41zm15.23-1.69a1.42 1.42 0 10-1.41-1.42 1.42 1.42 0 001.38 1.42zm-6.83 1.66a1.42 1.42 0 10-1.42-1.41 1.42 1.42 0 001.39 1.41zm7.43 55.7a1.42 1.42 0 10-1.41-1.42 1.42 1.42 0 001.38 1.42zM137.67 224a1.42 1.42 0 10-1.41-1.42 1.42 1.42 0 001.41 1.42zm39.82-15.87a1.42 1.42 0 10-1.42-1.41 1.42 1.42 0 001.42 1.36zm5.85 18.5a1.42 1.42 0 10-1.26-1.57 1.42 1.42 0 001.26 1.52zm-14 5.78a1.42 1.42 0 10-1.42-1.41 1.42 1.42 0 001.42 1.36zm42.25 20.51a1.41 1.41 0 101.19-1.61 1.42 1.42 0 00-1.19 1.56zm.73 11.21a1.42 1.42 0 10-1.41-1.41 1.41 1.41 0 001.41 1.36zm-1-44.38a1.42 1.42 0 10-1.42-1.42 1.43 1.43 0 001.44 1.37zm-4.72-1.9a1.42 1.42 0 10-.21-2 1.41 1.41 0 00.23 1.95zm4.8-6.44A1.42 1.42 0 10210 210a1.41 1.41 0 001.42 1.36zm6.9 21.56a1.42 1.42 0 10-1.41-1.42 1.42 1.42 0 001.43 1.37zm8.84 14.66a1.42 1.42 0 10-1.42-1.41 1.41 1.41 0 001.44 1.36zm.83-14.33a1.42 1.42 0 10-1.42-1.42 1.42 1.42 0 001.45 1.37zm-1.84 1.57a1.42 1.42 0 10-.77 1.85 1.42 1.42 0 00.79-1.9zM219.84 223a1.42 1.42 0 10-1.42-1.42 1.43 1.43 0 001.42 1.42zm-20.35 10.13a1.42 1.42 0 10-1.42-1.41 1.42 1.42 0 001.42 1.36zm13.33 15.5a1.42 1.42 0 10-1.41-1.41 1.41 1.41 0 001.41 1.36zm-13.33-20.66a1.42 1.42 0 10-1.42-1.42 1.43 1.43 0 001.42 1.37zm21 13.61a1.42 1.42 0 10-1.42-1.42 1.42 1.42 0 001.44 1.37zm-25.49-11a1.42 1.42 0 10-1.42-1.41 1.42 1.42 0 001.42 1.41zm-8.9 28.28a1.42 1.42 0 10-1.42-1.41 1.42 1.42 0 001.41 1.41zm32.73-40.69a1.42 1.42 0 10-1.41-1.42 1.42 1.42 0 001.4 1.42zm3.67 38.16a1.42 1.42 0 10-1.42-1.41 1.42 1.42 0 001.41 1.41zm.5-9.75a1.42 1.42 0 10-1.42-1.41 1.42 1.42 0 001.42 1.41zm-8.23-16a1.42 1.42 0 10-1.42-1.41 1.41 1.41 0 001.41 1.44zm-3.92.25a1.42 1.42 0 10-1.42-1.41 1.42 1.42 0 001.41 1.44zm-68.41-9.41a5.67 5.67 0 10-5.67-5.67 5.66 5.66 0 005.66 5.7zm3.91-11.61a2.84 2.84 0 10-2.83-2.84 2.84 2.84 0 002.82 2.87zm77.34 21.61a4.25 4.25 0 10-4.25-4.25 4.25 4.25 0 004.24 4.28zm-50.22-15.09a4.25 4.25 0 10-4.25-4.25 4.25 4.25 0 004.24 4.28zm-33.33 21.76a7.09 7.09 0 10-7.08-7.09 7.09 7.09 0 007.07 7.12zm75.15-13.31a2.84 2.84 0 10-2.83-2.84 2.84 2.84 0 002.82 2.87zm-98.94-19.28a4.25 4.25 0 10-4.25-4.25 4.25 4.25 0 004.24 4.28zm-4.81-2.28a1.42 1.42 0 10-1.69 1.09 1.42 1.42 0 001.68-1.06zm16.06 46.53a2.84 2.84 0 10-2.83-2.83 2.84 2.84 0 002.82 2.86zM217.34 262a4.26 4.26 0 10-4.25-4.25 4.26 4.26 0 004.25 4.25zm-10.16-11.92a2.84 2.84 0 10-2.84-2.83 2.83 2.83 0 002.84 2.87zm-108.3-8.5a2.84 2.84 0 10-2.83-2.84 2.84 2.84 0 002.83 2.88zm-2.1 10.71A2.83 2.83 0 1094 249.5a2.83 2.83 0 002.78 2.83zm2.17-7.2a1.42 1.42 0 10-1.42-1.42 1.43 1.43 0 001.47 1.46zm3.62-9.13a1.42 1.42 0 10-1.41-1.42 1.41 1.41 0 001.41 1.46zM95 226.58a1.42 1.42 0 10-1.42-1.41 1.42 1.42 0 001.42 1.41zm18.2-1.58a1.42 1.42 0 10-1.42-1.42 1.43 1.43 0 001.42 1.42zm-2 16.58a1.42 1.42 0 10-1.42-1.42 1.42 1.42 0 001.46 1.38zm7.62 1.29a1.42 1.42 0 10-1.41-1.41 1.41 1.41 0 001.45 1.37zm-8.41 15.09a1.42 1.42 0 10-1.41-1.46 1.43 1.43 0 001.45 1.42zm-19-21a1.42 1.42 0 10-1.42-1.42 1.43 1.43 0 001.5 1.34zm10.12-22.34a1.42 1.42 0 10-1.41-1.42 1.41 1.41 0 001.49 1.34zm18.21 10.88a1.42 1.42 0 10-1.41-1.42 1.42 1.42 0 001.49 1.34zm6.5-9.5a1.42 1.42 0 10-1.41-1.42 1.42 1.42 0 001.49 1.34zm-.14-3.74a2.84 2.84 0 10-2.83-2.83 2.84 2.84 0 002.91 2.75zm-6.86-4a1.42 1.42 0 10-1.41-1.42 1.42 1.42 0 001.49 1.33zm-5.79.16a1.42 1.42 0 10-1.42-1.41 1.42 1.42 0 001.5 1.32zm-3 2.75a1.42 1.42 0 10-1.42-1.41 1.42 1.42 0 001.5 1.32zm-1.83 7.25a1.42 1.42 0 10-1.42-1.41 1.42 1.42 0 001.5 1.32zm-5-7.54a1.42 1.42 0 10-1.42-1.41 1.42 1.42 0 001.54 1.32zm26.92 10.34a1.42 1.42 0 10-1.42-1.42 1.42 1.42 0 001.54 1.33zm.33-11.88a1.42 1.42 0 10-1.42-1.42 1.42 1.42 0 001.55 1.33z" transform="translate(-41.49 -193.59)" fill="url(#c)"/></svg>